# xmcd
#
# Track frame offsets: 
#        150
#        34298
#        65690
#        86955
#        110043
#        126233
#        142590
#
# Disc length: 2197 seconds
#
# Revision: 1
# Processed by: cddbd v1.5.2PL0 Copyright (c) Steve Scherf et al.
# Submitted via: ExactAudioCopy v0.95b3
#
DISCID=65089307
DTITLE=Sonny Stitt - Mr. Bojangles (Remaster)
DYEAR=1973
DGENRE=Jazz
TTITLE0=Mr. Bojangles
TTITLE1=The World Is A Ghetto
TTITLE2=Killing Me Softly With His Song
TTITLE3=Blue Monsoon
TTITLE4=Got To Be There
TTITLE5=Fifty Per Cent
TTITLE6=Ben
EXTD=YEAR: 1973
EXTT0=
EXTT1=
EXTT2=
EXTT3=
EXTT4=
EXTT5=
EXTT6=
PLAYORDER=
